<?xml version="1.0" encoding="iso-8859-1"?>
<!-- Generator: Adobe Illustrator 19.0.0, SVG Export Plug-In . SVG Version: 6.00 Build 0)  -->
<svg version="1.1" id="Layer_1" xmlns="http://www.w3.org/2000/svg" xmlns:xlink="http://www.w3.org/1999/xlink" x="0px" y="0px"
	 viewBox="0 0 512 512" style="enable-background:new 0 0 512 512;" xml:space="preserve">
<path style="fill:#9A4C00;" d="M338.427,44.787l-32.261,8.817c-0.888,0.303-15.242,5.297-15.242,14.03
	c0,14.762,1.619,33.775,2.591,43.805l-31.195,3.009c-0.052-0.491-0.094-1.024-0.146-1.557L256,112.87l-20.811-0.063h-15.712V63.132
	c0-18.199,9.904-54.534,47.388-61.867L273.332,0l28.959,19.923L338.427,44.787z"/>
<path style="fill:#723700;" d="M338.427,44.787l-32.261,8.817c-0.888,0.303-15.242,5.297-15.242,14.03
	c0,14.762,1.619,33.775,2.591,43.805l-31.195,3.009c-0.052-0.491-0.094-1.024-0.146-1.557L256,112.87V57.229
	c0,0,0.522-16.914,12.014-23.182c8.64-4.712,26.118-11.189,34.277-14.124L338.427,44.787z"/>
<path style="fill:#008C48;" d="M223.51,466.66l5.035,4.827l-0.449,14.417l-5.923,4.534c-1.013,0.773-22.607,17.008-49.979,17.008
	c-3.416,0-6.926-0.251-10.499-0.825c-9.601-1.536-18.523-5.077-26.671-10.604c-8.389-5.662-15.974-13.414-22.712-23.213
	c-20.612-29.973-45.936-96.677-60.217-158.618c-13.142-57.01-22.952-133.461,4.994-173.975
	c18.021-26.128,44.724-41.224,77.935-44.285c5.976-0.554,12.16-0.71,18.544-0.481c30.119,1.118,54.189,10.792,55.192,11.199
	l35.29,14.375l-35.186,14.615c-1.149,0.47-2.371,1.024-3.751,1.672l-0.167,0.073c-35.353,16.705-49.759,52.695-42.823,106.947
	C174.67,342.496,188.815,433.365,223.51,466.66z"/>
<g>
	<path style="fill:#00A653;" d="M375.002,240.105c-15.211,118.94-30.976,212.681-71.876,251.931
		C290.193,504.447,274.752,511.425,256,512c-78.008-2.403-98.975-115.325-119.002-271.895C116.981,83.535,256,93.95,256,93.95
		s28.479-2.131,57.804,10.05l4.795,2.131C352.479,122.063,385.47,158.263,375.002,240.105z"/>
	<path style="fill:#00A653;" d="M454.913,140.21c-16.712-24.232-40.45-38.83-70.554-43.385c-24.197-3.663-47.442,0.168-62.681,4.026
		c-4.576,1.159-9,2.459-13.149,3.864c-5.853,1.984-13.871,4.7-14.959,14.756l-1.262,11.661l10.832,4.499
		c1.147,0.476,2.374,1.023,3.752,1.67l0.137,0.065c35.375,16.707,49.794,52.693,42.854,106.961
		c-12.553,98.166-26.694,189.039-61.392,222.334l-5.03,4.843l0.45,14.411l5.915,4.52c1.015,0.775,22.612,17.011,49.98,17.011
		c3.419,0,6.931-0.254,10.502-0.823c19.478-3.103,36.094-14.481,49.388-33.818c20.605-29.971,45.927-96.682,60.212-158.624
		C473.051,257.178,482.855,180.726,454.913,140.21z"/>
</g>
<path style="fill:#008040;" d="M375.002,240.105c-15.211,118.94-30.976,212.681-71.876,251.931
	C290.193,504.447,274.752,511.425,256,512V93.95c0,0,28.479-2.131,57.804,10.05l4.795,2.131
	C352.479,122.063,385.47,158.263,375.002,240.105z"/>
<g>
</g>
<g>
</g>
<g>
</g>
<g>
</g>
<g>
</g>
<g>
</g>
<g>
</g>
<g>
</g>
<g>
</g>
<g>
</g>
<g>
</g>
<g>
</g>
<g>
</g>
<g>
</g>
<g>
</g>
</svg>
