<?xml version="1.0" encoding="iso-8859-1"?>
<!-- Generator: Adobe Illustrator 19.0.0, SVG Export Plug-In . SVG Version: 6.00 Build 0)  -->
<svg version="1.1" id="Layer_1" xmlns="http://www.w3.org/2000/svg" xmlns:xlink="http://www.w3.org/1999/xlink" x="0px" y="0px"
	 viewBox="0 0 376.93 376.93" style="enable-background:new 0 0 376.93 376.93;" xml:space="preserve">
<g>
	<path style="fill:#B7ED62;" d="M349.978,40.196c0,0-46.768,27.916-118.853,27.533c-28.518-0.155-61.011-4.737-96.137-17.23
		l-9.689-17.478c0,0,27.843-25.479,77.309-31.671C240.164-3.365,290.2,3.057,349.978,40.196"/>
	<path style="fill:#ACDA63;" d="M201.385,1.507c-48.699,6.455-76.087,31.514-76.087,31.514l9.689,17.478
		c35.126,12.494,67.619,17.075,96.137,17.23l-0.011-0.009c-47.747-40.901-28.506-66.37-28.506-66.37
		C202.197,1.401,201.793,1.453,201.385,1.507"/>
	<path style="fill:#B7ED62;" d="M231.459,116.35c-19.05-26.043-41.455-47.511-66.59-63.808
		C133.391,32.134,97.589,19.859,58.458,16.06l-1.455,14.994c36.594,3.553,70.038,14.977,99.404,33.956
		c11.259,7.276,21.939,15.683,31.989,25.134c-3.073,31.089-17.5,58.616-42.931,81.863c-20.013,18.294-39.683,26.919-39.879,27.004
		l5.957,13.837c0.882-0.379,21.837-9.506,43.689-29.36c24.831-22.561,40.669-49.927,46.41-79.885
		c6.06,6.657,11.85,13.731,17.348,21.216c30.82,41.964,41.977,82.657,42.087,83.063l14.553-3.892
		C275.16,202.236,263.797,160.557,231.459,116.35z"/>
	<path style="fill:#DD4545;" d="M357.93,287.35c0,42.815-30.043,78.626-70.211,87.471c-6.23,1.388-12.719,2.109-19.369,2.109
		c-49.465,0-89.569-40.115-89.569-89.58c0-49.476,40.104-89.58,89.569-89.58c6.65,0,13.138,0.721,19.369,2.109
		C327.888,208.724,357.93,244.524,357.93,287.35z"/>
	<path style="fill:#F75959;" d="M357.93,287.35c0,42.815-30.043,78.626-70.211,87.471c-40.168-8.845-70.211-44.655-70.211-87.471
		c0-42.826,30.043-78.625,70.211-87.47C327.888,208.724,357.93,244.524,357.93,287.35z"/>
	<path style="fill:#DD4545;" d="M198.148,287.35c0,42.815-30.043,78.626-70.211,87.471c-6.23,1.388-12.719,2.109-19.369,2.109
		c-49.465,0-89.569-40.115-89.569-89.58c0-49.476,40.104-89.58,89.569-89.58c6.65,0,13.138,0.721,19.369,2.109
		C168.105,208.724,198.148,244.524,198.148,287.35z"/>
	<path style="fill:#F75959;" d="M198.148,287.35c0,42.815-30.043,78.626-70.211,87.471c-40.168-8.845-70.211-44.655-70.211-87.471
		c0-42.826,30.043-78.625,70.211-87.47C168.105,208.724,198.148,244.524,198.148,287.35z"/>
	<circle style="fill:#FFCCCC;" cx="157.873" cy="271.672" r="20.909"/>
	<circle style="fill:#FFCCCC;" cx="323.371" cy="271.672" r="20.909"/>
</g>
<g>
</g>
<g>
</g>
<g>
</g>
<g>
</g>
<g>
</g>
<g>
</g>
<g>
</g>
<g>
</g>
<g>
</g>
<g>
</g>
<g>
</g>
<g>
</g>
<g>
</g>
<g>
</g>
<g>
</g>
</svg>
