<?xml version="1.0" encoding="iso-8859-1"?>
<!-- Generator: Adobe Illustrator 19.0.0, SVG Export Plug-In . SVG Version: 6.00 Build 0)  -->
<svg version="1.1" id="Layer_1" xmlns="http://www.w3.org/2000/svg" xmlns:xlink="http://www.w3.org/1999/xlink" x="0px" y="0px"
	 viewBox="0 0 512.001 512.001" style="enable-background:new 0 0 512.001 512.001;" xml:space="preserve">
<path style="fill:#90BC42;" d="M256.001,141.549c-5.37,0-9.724-4.354-9.724-9.724V9.724c0-5.371,4.354-9.724,9.724-9.724
	c5.371,0,9.724,4.354,9.724,9.724v122.1C265.725,137.195,261.371,141.549,256.001,141.549z"/>
<path style="fill:#D64394;" d="M256.001,131.825c0,0,141.212,72.428,125.822-9.517c2.308-0.324,4.668-0.48,7.079-0.48
	c29.627,0,53.64,24.013,53.64,53.64c0,10.399-2.943,20.084-8.078,28.318c24.337,5.083,42.619,26.658,42.619,52.499
	c0,20.019-10.982,37.485-27.242,46.69c10.515,9.789,17.089,23.754,17.089,39.261c0,29.627-24.026,53.653-53.653,53.653
	c-0.934,0-1.88-0.039-2.801-0.078c1.802,5.381,2.801,11.151,2.801,17.141c0,29.627-24.013,53.653-53.64,53.653
	c-6.963,0-13.614-1.348-19.708-3.747C337.634,490.373,314.594,512,286.484,512c-11.319,0-176.652-118.34-174.837-123.721
	c-0.934,0.039-46.811-173.848-22.474-178.93c-5.122-8.233,4.301-87.52,33.928-87.52c2.399,0,4.746,0.156,7.066,0.48
	C114.775,204.253,256.001,131.825,256.001,131.825z"/>
<path style="fill:#BC3987;" d="M265.414,462.859c-6.094,2.399-12.733,3.747-19.695,3.747c-29.627,0-53.653-24.026-53.653-53.653
	c0-5.99,0.998-11.76,2.814-17.141c-0.934,0.039-1.867,0.078-2.814,0.078c-29.64,0-53.653-24.026-53.653-53.653
	c0-15.507,6.574-29.472,17.089-39.261c-16.259-9.206-27.229-26.671-27.229-46.69c0-9.944,2.714-19.249,7.428-27.232
	c-7.576-27.332-13.328-65.251-5.535-106.744c-2.321-0.324-4.668-0.48-7.066-0.48c-29.627,0-53.653,24.013-53.653,53.64
	c0,10.399,2.956,20.084,8.078,28.318c-24.337,5.083-42.606,26.658-42.606,52.499c0,20.019,10.969,37.485,27.229,46.69
	c-10.515,9.789-17.089,23.754-17.089,39.261c0,29.627,24.013,53.653,53.653,53.653c0.947,0,1.88-0.039,2.814-0.078
	c-1.815,5.381-2.814,11.151-2.814,17.141c0,29.627,24.026,53.653,53.653,53.653c6.963,0,13.601-1.348,19.695-3.747
	c2.295,27.514,25.348,49.141,53.446,49.141c11.332,0,21.835-3.527,30.483-9.504c8.661,5.977,19.177,9.504,30.496,9.504
	c5.645,0,11.081-0.886,16.191-2.502C282.346,503.061,267.249,484.847,265.414,462.859z"/>
<g>
	<path style="fill:#90BC42;" d="M256.001,131.825c0,0-37.368,107.254-103.793,140.46c0,0-37.433-68.032-22.042-149.977
		c0.259-1.426,0.545-2.853,0.843-4.292c10.917-52.136,76.784-64.947,107.073-25.867c2.477,3.164,4.694,6.677,6.639,10.528
		C248.869,110.898,252.668,120.545,256.001,131.825z"/>
	<path style="fill:#90BC42;" d="M267.268,102.677c25.893-51.423,101.912-41.024,113.712,15.339c0.298,1.439,0.583,2.865,0.843,4.292
		c15.391,81.945-22.042,149.977-22.042,149.977c-66.412-33.206-103.78-140.46-103.78-140.46
		C259.32,120.545,263.119,110.898,267.268,102.677z"/>
</g>
<g>
	<path style="fill:#9AD14B;" d="M256.001,131.825c0,0-37.368,107.254-103.793,140.46c0,0,7.844-69.42,23.404-131.656
		s51.864-45.381,51.864-45.381s15.3,3.579,17.245,7.43C248.869,110.898,252.668,120.545,256.001,131.825z"/>
	<path style="fill:#9AD14B;" d="M255.988,131.825c0,0,37.368,107.254,103.793,140.46c0,0-7.844-69.42-23.404-131.656
		c-15.559-62.237-51.864-45.381-51.864-45.381s-15.3,3.579-17.245,7.43C263.119,110.898,259.32,120.545,255.988,131.825z"/>
</g>
<g>
</g>
<g>
</g>
<g>
</g>
<g>
</g>
<g>
</g>
<g>
</g>
<g>
</g>
<g>
</g>
<g>
</g>
<g>
</g>
<g>
</g>
<g>
</g>
<g>
</g>
<g>
</g>
<g>
</g>
</svg>
