<?xml version="1.0" encoding="UTF-8" standalone="no"?>
<svg
   xmlns:dc="http://purl.org/dc/elements/1.1/"
   xmlns:cc="http://creativecommons.org/ns#"
   xmlns:rdf="http://www.w3.org/1999/02/22-rdf-syntax-ns#"
   xmlns:svg="http://www.w3.org/2000/svg"
   xmlns="http://www.w3.org/2000/svg"
   xmlns:sodipodi="http://sodipodi.sourceforge.net/DTD/sodipodi-0.dtd"
   xmlns:inkscape="http://www.inkscape.org/namespaces/inkscape"
   width="316pt"
   height="585pt"
   viewBox="0 0 316 585"
   version="1.1"
   id="svg2"
   inkscape:version="0.91 r13725"
   sodipodi:docname="Acorn2Lores.svg">
  <metadata
     id="metadata70">
    <rdf:RDF>
      <cc:Work
         rdf:about="">
        <dc:format>image/svg+xml</dc:format>
        <dc:type
           rdf:resource="http://purl.org/dc/dcmitype/StillImage" />
        <dc:title></dc:title>
      </cc:Work>
    </rdf:RDF>
  </metadata>
  <defs
     id="defs68">
    <filter
       style="color-interpolation-filters:sRGB;"
       inkscape:label="Cross Blur"
       id="filter4231">
      <feColorMatrix
         in="SourceGraphic"
         values="1 0 0 0 0 0 1 0 0 0 0 0 1 0 0 -0.2125 -0.7154 -0.0721 1 0 "
         result="colormatrix"
         id="feColorMatrix4233" />
      <feComposite
         in="SourceGraphic"
         in2="colormatrix"
         operator="arithmetic"
         k2="1"
         k3="0"
         k4="0"
         result="composite"
         id="feComposite4235" />
      <feGaussianBlur
         stdDeviation="0.1 0.01"
         result="blur1"
         id="feGaussianBlur4237" />
      <feGaussianBlur
         in="composite"
         stdDeviation="0.01 0.1"
         result="blur2"
         id="feGaussianBlur4239" />
      <feBlend
         in="blur2"
         in2="blur1"
         mode="darken"
         result="blend"
         id="feBlend4241" />
    </filter>
  </defs>
  <sodipodi:namedview
     pagecolor="#ffffff"
     bordercolor="#666666"
     borderopacity="1"
     objecttolerance="10"
     gridtolerance="10"
     guidetolerance="10"
     inkscape:pageopacity="0"
     inkscape:pageshadow="2"
     inkscape:window-width="1600"
     inkscape:window-height="837"
     id="namedview66"
     showgrid="false"
     inkscape:zoom="0.91623932"
     inkscape:cx="197.5"
     inkscape:cy="365.625"
     inkscape:window-x="-8"
     inkscape:window-y="-8"
     inkscape:window-maximized="1"
     inkscape:current-layer="svg2" />
  <g
     id="g4198"
     style="filter:url(#filter4231)">
    <path
       id="path4"
       d=" M 150.57 0.00 L 155.85 0.00 C 157.87 4.53 161.33 7.92 164.91 11.19 C 158.62 20.38 163.19 31.94 163.61 41.97 C 193.45 44.97 221.00 59.83 241.17 81.82 C 291.51 150.01 308.69 236.39 316.00 318.77 L 316.00 367.13 C 311.71 413.83 306.46 463.50 279.03 503.58 C 273.02 499.51 284.62 491.48 284.91 485.08 C 295.33 460.85 305.25 435.76 306.23 409.06 C 312.22 368.01 314.44 326.15 308.43 284.94 C 307.15 274.88 306.25 264.24 303.44 254.66 C 291.68 194.55 276.18 130.83 235.75 83.01 C 234.31 81.48 232.50 80.38 231.08 78.83 C 230.74 78.41 230.08 77.57 229.74 77.15 C 228.35 75.64 227.02 74.05 225.31 72.89 C 215.05 60.96 199.26 55.84 185.17 49.82 C 181.72 48.28 178.01 47.44 174.27 47.01 C 151.19 45.37 124.08 43.50 104.81 58.86 C 84.61 80.39 69.64 104.94 55.61 130.60 C 14.23 200.49 7.42 283.98 4.46 363.41 C 6.23 385.89 7.42 408.10 12.02 430.31 C 12.26 434.01 13.39 437.63 14.84 441.02 C 21.09 459.68 22.25 480.13 33.21 496.94 C 44.53 526.46 63.01 555.82 92.14 570.00 C 115.38 582.14 143.34 582.69 168.56 578.61 C 182.42 580.51 196.37 574.35 208.50 568.17 C 218.44 563.57 226.92 556.14 236.05 549.98 C 251.85 541.72 260.01 525.02 271.00 511.92 C 271.16 506.98 277.71 501.52 276.26 509.21 C 253.63 553.89 204.96 582.04 156.07 585.00 L 137.74 585.00 C 109.22 581.30 76.84 575.18 59.16 549.85 C 42.15 533.61 35.14 510.71 24.66 490.34 C 10.96 458.08 7.47 422.95 0.00 389.03 L 0.00 357.61 C 2.77 281.72 10.06 202.53 48.06 135.06 C 60.70 109.37 77.83 86.02 95.35 63.35 C 106.68 46.68 127.43 43.50 145.88 41.79 C 142.64 32.07 145.73 21.90 141.69 12.32 C 139.05 5.82 145.71 2.09 150.57 0.00 Z"
       opacity="1.00"
       fill="#232601" />
    <path
       id="path6"
       d=" M 104.81 58.86 C 124.08 43.50 151.19 45.37 174.27 47.01 C 169.60 54.97 167.95 58.89 171.99 68.82 C 168.15 75.61 161.73 74.12 159.04 67.92 C 151.85 81.48 158.58 97.41 155.44 111.94 C 159.06 151.57 156.18 191.34 154.68 231.13 C 158.84 240.11 154.05 249.08 153.92 258.21 C 160.58 277.64 150.82 297.58 155.56 317.27 C 158.80 327.01 151.08 336.97 155.65 346.52 C 160.68 354.67 152.21 362.87 155.97 371.32 C 161.93 381.19 149.48 392.59 156.45 400.89 C 159.91 419.62 162.17 438.79 160.61 456.78 C 157.70 457.19 154.05 451.47 153.97 456.92 C 155.13 459.68 165.50 463.41 157.71 463.72 C 149.97 462.99 157.01 471.51 161.35 467.55 C 161.16 472.11 155.85 472.42 152.39 472.85 C 150.61 467.55 142.35 479.54 142.44 472.61 C 144.80 465.81 129.26 472.44 132.93 465.49 C 137.72 465.82 142.38 467.36 146.80 469.19 C 144.29 465.60 140.03 458.48 148.41 458.56 C 162.77 452.42 149.14 433.00 158.63 422.81 C 155.37 419.57 146.49 410.71 146.01 419.99 C 141.25 423.48 141.54 412.17 141.21 409.58 C 131.66 406.57 113.72 415.11 115.01 427.24 C 112.61 426.39 111.12 420.57 108.65 422.91 C 109.87 430.82 96.96 429.92 101.37 438.35 C 106.84 443.81 103.65 451.84 99.29 456.96 C 100.73 462.24 104.71 465.16 109.85 466.59 C 91.38 461.15 107.23 480.71 97.23 483.26 C 96.44 429.24 94.64 377.72 92.88 323.35 C 98.19 318.46 101.81 325.07 106.06 327.87 C 110.20 322.37 115.36 331.60 118.35 324.22 C 124.17 327.51 124.79 339.99 121.88 345.37 C 132.40 349.37 115.51 359.61 124.41 364.69 C 135.40 358.73 125.52 342.96 136.16 337.91 C 130.53 339.01 124.38 334.40 128.63 328.70 C 132.40 313.05 132.21 296.30 134.05 280.23 C 134.97 273.98 141.22 267.62 136.56 261.59 C 137.10 253.12 142.38 244.88 141.71 236.22 C 138.02 232.11 137.68 226.38 136.44 221.25 C 150.32 214.89 142.77 194.22 137.80 186.37 C 149.74 186.12 143.69 173.01 148.40 166.49 C 147.73 145.61 156.76 125.16 151.00 104.47 C 139.83 100.40 143.98 121.50 132.89 120.63 C 133.67 110.09 134.39 99.48 131.05 89.30 C 125.45 88.96 127.55 95.74 127.42 99.02 C 128.86 107.76 121.38 113.68 117.23 120.35 C 118.26 112.36 123.01 105.24 123.78 97.37 C 124.84 91.10 114.19 91.32 113.91 96.98 C 106.10 117.47 100.58 139.91 93.74 159.82 C 85.60 154.26 101.83 149.76 91.92 148.26 C 86.19 146.85 92.52 156.19 87.98 156.71 C 91.00 148.41 85.43 136.58 95.80 132.84 C 94.29 130.30 91.38 127.39 95.25 125.26 C 100.47 113.65 102.78 100.57 108.20 88.90 C 113.86 78.15 95.41 84.25 96.70 74.61 C 94.46 67.41 103.87 65.26 104.81 58.86 Z"
       opacity="1.00"
       fill="#e7a300" />
    <path
       id="path8"
       d=" M 174.27 47.01 C 178.01 47.44 181.72 48.28 185.17 49.82 C 194.02 57.05 169.52 54.22 178.01 64.51 C 185.46 62.31 182.53 65.54 177.07 67.05 C 184.52 71.22 172.58 77.92 179.19 81.56 C 178.76 87.53 174.62 95.14 179.97 99.93 C 177.69 107.58 162.40 97.92 173.49 95.48 C 172.01 90.23 164.35 84.33 162.15 79.17 C 153.64 96.65 160.31 119.02 159.87 137.96 C 162.04 171.23 156.40 206.26 159.65 238.09 C 160.29 240.94 160.65 243.82 161.05 246.73 C 157.98 250.35 155.40 255.81 159.00 260.01 C 164.17 273.71 160.30 288.96 162.93 302.46 C 161.31 360.86 165.96 419.62 161.54 477.87 C 155.55 482.87 162.31 488.32 161.00 495.13 C 160.91 496.36 160.95 497.58 161.13 498.81 C 154.87 497.20 150.49 509.18 142.56 501.18 C 143.71 507.98 152.55 505.68 154.25 510.61 C 145.47 510.35 134.98 507.53 129.09 515.86 C 134.70 515.13 141.85 511.34 146.72 515.00 C 145.27 518.48 138.63 521.00 142.83 525.90 C 136.07 529.40 127.99 531.70 120.60 531.86 C 118.96 535.58 130.11 536.12 126.04 540.69 C 122.38 537.77 117.58 542.38 114.82 538.21 C 108.14 539.31 115.77 547.06 109.76 547.75 C 105.61 548.81 112.43 540.69 108.15 541.51 C 100.86 542.66 109.07 533.24 111.88 532.57 C 100.56 532.51 103.99 517.96 99.35 512.38 C 106.64 508.05 97.41 500.52 99.85 493.55 C 106.03 492.21 98.81 505.35 106.10 506.27 C 108.29 503.01 103.44 494.86 109.53 496.44 C 114.79 494.99 110.41 506.21 115.50 501.65 C 117.25 495.75 123.28 506.56 122.51 497.65 C 123.68 493.81 129.12 504.32 130.65 498.20 C 126.18 492.93 136.00 490.56 133.35 484.70 C 133.32 478.71 141.16 488.11 143.48 482.69 C 145.43 477.86 154.28 484.91 153.43 478.55 C 147.00 478.99 149.24 474.37 152.39 472.85 C 155.85 472.42 161.16 472.11 161.35 467.55 C 157.01 471.51 149.97 462.99 157.71 463.72 C 165.50 463.41 155.13 459.68 153.97 456.92 C 154.05 451.47 157.70 457.19 160.61 456.78 C 162.17 438.79 159.91 419.62 156.45 400.89 C 149.48 392.59 161.93 381.19 155.97 371.32 C 152.21 362.87 160.68 354.67 155.65 346.52 C 151.08 336.97 158.80 327.01 155.56 317.27 C 150.82 297.58 160.58 277.64 153.92 258.21 C 154.05 249.08 158.84 240.11 154.68 231.13 C 156.18 191.34 159.06 151.57 155.44 111.94 C 158.58 97.41 151.85 81.48 159.04 67.92 C 161.73 74.12 168.15 75.61 171.99 68.82 C 167.95 58.89 169.60 54.97 174.27 47.01 Z"
       opacity="1.00"
       fill="#b79a03" />
    <path
       id="path10"
       d=" M 185.17 49.82 C 199.26 55.84 215.05 60.96 225.31 72.89 C 223.88 74.42 221.96 76.65 219.62 75.50 C 217.58 65.73 203.61 70.32 199.80 61.89 C 196.57 60.35 190.65 61.55 189.95 65.92 C 189.25 70.73 178.41 74.96 188.52 77.06 C 180.69 96.46 198.69 114.88 192.62 134.82 C 195.73 139.73 195.50 146.15 194.54 151.73 C 202.81 169.91 195.50 190.71 200.56 209.35 C 201.67 216.45 195.55 225.68 204.07 228.82 C 189.20 238.04 212.08 256.55 198.30 267.06 C 206.19 265.64 205.30 277.60 205.21 283.99 C 199.20 297.02 206.46 311.83 205.23 324.37 C 206.03 347.49 205.00 375.13 205.95 400.15 C 202.23 401.10 189.22 397.60 197.24 402.64 C 192.42 408.35 205.96 409.27 197.64 416.96 C 184.79 418.52 200.25 421.48 197.85 427.95 C 199.31 438.01 174.20 441.58 185.12 449.86 C 188.32 453.13 188.77 446.01 191.40 445.13 C 199.10 443.99 188.89 459.24 198.44 453.55 C 202.17 457.37 189.33 459.86 185.45 457.38 C 187.66 464.20 183.58 470.17 178.76 463.23 C 188.59 458.65 176.13 450.82 178.76 463.23 C 173.54 466.23 171.05 456.69 176.20 455.41 C 181.39 453.24 170.03 452.72 173.59 448.73 C 182.41 442.07 170.51 431.98 177.49 424.60 C 175.11 410.01 184.91 384.81 178.01 366.93 L 177.91 366.13 C 187.33 359.44 178.02 346.98 182.47 338.50 C 181.09 315.44 188.65 293.90 180.53 271.23 C 181.98 268.85 188.13 264.17 182.32 262.37 C 178.81 251.23 183.27 238.70 184.46 227.59 C 175.10 229.54 187.13 219.37 181.45 213.90 C 176.84 203.91 187.44 196.23 181.87 186.95 C 182.69 167.12 175.18 146.66 176.78 126.36 C 173.24 115.24 171.00 100.91 162.96 91.98 C 156.62 107.60 163.94 125.55 161.48 142.05 C 163.82 173.99 160.37 206.10 159.65 238.09 C 156.40 206.26 162.04 171.23 159.87 137.96 C 160.31 119.02 153.64 96.65 162.15 79.17 C 164.35 84.33 172.01 90.23 173.49 95.48 C 162.40 97.92 177.69 107.58 179.97 99.93 C 174.62 95.14 178.76 87.53 179.19 81.56 C 172.58 77.92 184.52 71.22 177.07 67.05 C 182.53 65.54 185.46 62.31 178.01 64.51 C 169.52 54.22 194.02 57.05 185.17 49.82 Z"
       opacity="1.00"
       fill="#a48500" />
    <path
       id="path12"
       d=" M 55.61 130.60 C 69.64 104.94 84.61 80.39 104.81 58.86 C 103.87 65.26 94.46 67.41 96.70 74.61 C 95.41 84.25 113.86 78.15 108.20 88.90 C 102.78 100.57 100.47 113.65 95.25 125.26 C 91.38 127.39 94.29 130.30 95.80 132.84 C 85.43 136.58 91.00 148.41 87.98 156.71 C 86.55 159.07 82.82 161.82 85.83 164.40 C 89.50 168.71 79.66 171.43 82.20 175.85 C 84.73 180.89 72.96 186.38 80.27 188.96 C 79.97 189.43 79.35 190.36 79.05 190.83 C 73.08 186.13 78.70 177.93 80.31 172.11 C 85.15 148.49 90.10 125.09 100.00 103.84 C 99.21 97.76 93.18 104.16 91.91 106.97 C 80.54 133.34 71.36 160.03 64.82 186.81 C 57.85 199.26 62.13 216.89 52.45 227.04 C 57.40 232.94 48.14 234.85 53.70 240.21 C 47.95 255.29 51.51 271.18 47.70 286.63 C 44.81 291.28 45.23 297.67 49.86 300.94 C 40.80 305.14 51.89 313.59 45.06 319.02 C 41.57 322.52 49.97 322.00 46.77 325.11 C 43.47 337.06 49.14 350.22 44.29 362.06 C 51.10 367.18 40.30 379.00 48.87 386.32 C 43.30 394.56 57.35 404.69 49.02 410.88 C 55.72 415.02 52.32 423.85 51.01 430.05 C 47.85 423.84 49.77 405.75 41.91 418.26 C 43.41 402.14 26.77 417.89 20.01 407.19 C 25.91 406.74 30.05 390.96 24.01 399.41 C 18.75 402.23 23.68 389.87 17.54 392.14 C 9.89 392.21 6.86 409.16 15.84 401.86 C 21.17 402.54 2.98 417.50 14.74 414.17 C 13.03 419.41 12.00 424.75 12.02 430.31 C 7.42 408.10 6.23 385.89 4.46 363.41 C 7.42 283.98 14.23 200.49 55.61 130.60 Z"
       opacity="1.00"
       fill="#968000" />
    <path
       id="path14"
       d=" M 189.95 65.92 C 190.65 61.55 196.57 60.35 199.80 61.89 C 203.61 70.32 217.58 65.73 219.62 75.50 C 221.96 76.65 223.88 74.42 225.31 72.89 C 227.02 74.05 228.35 75.64 229.74 77.15 C 218.28 72.49 228.68 89.84 231.08 78.83 C 232.50 80.38 234.31 81.48 235.75 83.01 C 228.53 82.99 232.77 89.58 233.54 93.69 C 241.55 91.67 238.41 103.29 243.20 106.86 C 246.52 109.14 245.71 112.72 244.52 115.95 C 270.95 135.57 268.65 172.94 285.30 199.88 C 288.74 218.57 293.63 236.68 298.79 254.89 C 299.20 258.52 304.23 258.33 303.44 254.66 C 306.25 264.24 307.15 274.88 308.43 284.94 C 305.10 278.36 304.97 268.22 302.90 260.07 C 300.37 259.55 298.42 262.58 299.16 264.86 C 301.47 276.88 304.47 288.77 306.20 300.91 C 310.94 298.33 304.13 289.65 308.43 284.94 C 314.44 326.15 312.22 368.01 306.23 409.06 C 305.25 435.76 295.33 460.85 284.91 485.08 C 279.45 483.04 287.51 475.95 282.27 471.95 C 291.23 467.15 279.38 456.83 289.79 455.01 C 282.82 448.65 294.30 442.04 293.58 434.75 C 296.29 429.05 287.91 416.01 299.06 421.81 C 294.87 413.32 303.67 403.09 296.33 395.92 C 302.53 387.76 298.00 377.50 301.65 368.82 C 306.95 369.96 305.48 362.61 300.87 364.80 C 301.13 358.57 307.17 341.79 296.89 338.18 C 305.49 333.11 305.53 319.83 298.54 313.46 C 298.78 278.94 291.46 245.65 283.35 212.31 C 280.71 193.66 267.08 178.78 265.10 160.02 C 258.51 145.05 251.04 129.85 240.05 117.73 C 239.52 113.35 238.51 108.94 233.46 108.87 C 234.31 105.38 237.76 100.85 234.59 97.69 C 220.05 98.13 213.34 82.90 205.63 73.29 C 197.32 67.27 189.03 78.12 193.65 86.36 C 198.82 90.35 190.57 98.26 196.81 101.33 C 199.58 102.90 194.39 102.96 193.26 103.88 C 204.08 122.69 199.63 145.52 203.61 166.10 C 202.54 175.46 207.29 183.25 201.31 191.83 C 206.84 197.43 200.96 210.65 209.62 212.18 C 203.35 221.31 207.64 236.92 206.48 249.05 C 209.62 269.46 207.56 290.00 210.07 310.47 C 215.74 319.24 209.03 330.08 209.22 339.79 C 212.07 351.92 207.95 364.88 212.27 376.46 C 221.44 379.30 199.45 382.48 214.47 382.98 C 205.16 392.31 214.08 407.31 208.53 419.07 C 212.79 441.58 203.91 465.20 204.81 486.78 C 195.40 486.70 206.83 503.37 197.42 507.33 C 204.12 518.86 191.98 528.84 194.18 540.80 C 202.85 541.96 198.74 528.90 203.64 524.75 C 211.29 514.90 208.71 501.73 214.60 491.25 C 216.58 488.14 212.41 469.01 220.19 477.81 C 218.58 497.13 215.08 516.77 208.24 534.88 C 203.97 547.58 221.91 553.00 230.74 547.80 C 233.55 545.93 238.38 545.20 236.05 549.98 C 226.92 556.14 218.44 563.57 208.50 568.17 C 204.82 563.44 195.86 570.27 194.57 563.28 C 192.43 558.47 198.97 555.21 197.62 550.54 C 183.36 553.93 186.43 534.07 192.63 527.95 C 186.77 520.01 197.97 509.40 194.05 504.19 C 193.21 510.50 176.26 519.42 178.87 506.54 C 185.46 509.30 185.03 505.63 183.31 500.37 C 188.36 501.42 192.71 497.38 197.77 498.80 C 195.56 495.47 191.70 491.96 197.70 489.20 C 191.25 487.16 191.60 473.58 199.74 476.80 C 195.40 471.18 204.96 464.36 197.02 461.21 C 202.75 456.83 204.56 449.55 206.88 443.22 C 199.78 440.91 206.82 431.87 200.31 429.44 C 197.96 425.13 207.77 427.91 205.20 423.81 C 197.72 416.92 208.32 408.22 205.95 400.15 C 205.00 375.13 206.03 347.49 205.23 324.37 C 206.46 311.83 199.20 297.02 205.21 283.99 C 205.30 277.60 206.19 265.64 198.30 267.06 C 212.08 256.55 189.20 238.04 204.07 228.82 C 195.55 225.68 201.67 216.45 200.56 209.35 C 195.50 190.71 202.81 169.91 194.54 151.73 C 195.50 146.15 195.73 139.73 192.62 134.82 C 198.69 114.88 180.69 96.46 188.52 77.06 C 178.41 74.96 189.25 70.73 189.95 65.92 Z"
       opacity="1.00"
       fill="#6c6b00" />
    <path
       id="path16"
       d=" M 193.65 86.36 C 189.03 78.12 197.32 67.27 205.63 73.29 C 213.34 82.90 220.05 98.13 234.59 97.69 C 237.76 100.85 234.31 105.38 233.46 108.87 C 238.51 108.94 239.52 113.35 240.05 117.73 C 251.04 129.85 258.51 145.05 265.10 160.02 C 267.08 178.78 280.71 193.66 283.35 212.31 C 291.46 245.65 298.78 278.94 298.54 313.46 C 305.53 319.83 305.49 333.11 296.89 338.18 C 307.17 341.79 301.13 358.57 300.87 364.80 C 305.48 362.61 306.95 369.96 301.65 368.82 C 298.00 377.50 302.53 387.76 296.33 395.92 C 303.67 403.09 294.87 413.32 299.06 421.81 C 287.91 416.01 296.29 429.05 293.58 434.75 C 294.30 442.04 282.82 448.65 289.79 455.01 C 279.38 456.83 291.23 467.15 282.27 471.95 C 287.51 475.95 279.45 483.04 284.91 485.08 C 284.62 491.48 273.02 499.51 279.03 503.58 C 279.00 505.88 278.38 508.01 276.26 509.21 C 277.71 501.52 271.16 506.98 271.00 511.92 C 260.01 525.02 251.85 541.72 236.05 549.98 C 238.38 545.20 233.55 545.93 230.74 547.80 C 221.91 553.00 203.97 547.58 208.24 534.88 C 215.08 516.77 218.58 497.13 220.19 477.81 C 212.41 469.01 216.58 488.14 214.60 491.25 C 208.71 501.73 211.29 514.90 203.64 524.75 C 198.74 528.90 202.85 541.96 194.18 540.80 C 191.98 528.84 204.12 518.86 197.42 507.33 C 206.83 503.37 195.40 486.70 204.81 486.78 C 203.91 465.20 212.79 441.58 208.53 419.07 C 214.08 407.31 205.16 392.31 214.47 382.98 C 199.45 382.48 221.44 379.30 212.27 376.46 C 207.95 364.88 212.07 351.92 209.22 339.79 C 209.03 330.08 215.74 319.24 210.07 310.47 C 207.56 290.00 209.62 269.46 206.48 249.05 C 207.64 236.92 203.35 221.31 209.62 212.18 C 200.96 210.65 206.84 197.43 201.31 191.83 C 207.29 183.25 202.54 175.46 203.61 166.10 C 199.63 145.52 204.08 122.69 193.26 103.88 C 194.39 102.96 199.58 102.90 196.81 101.33 C 190.57 98.26 198.82 90.35 193.65 86.36 M 198.01 77.14 C 205.17 85.58 200.52 108.27 215.76 104.10 C 211.87 112.81 216.84 122.00 216.22 132.67 C 225.76 147.82 222.17 166.13 229.44 180.46 C 226.34 188.21 229.27 196.64 225.15 204.06 C 231.02 219.77 223.18 237.06 229.79 252.09 C 228.75 327.32 236.48 402.51 226.91 475.04 C 221.13 482.99 238.61 490.40 229.17 496.05 C 223.46 489.04 219.57 504.73 227.14 501.29 C 239.86 495.81 220.99 523.22 234.29 518.49 C 249.31 520.84 256.97 502.06 260.80 490.62 C 275.03 477.71 270.11 456.63 282.95 442.89 C 286.09 440.17 278.86 438.93 281.76 435.85 C 290.98 420.62 282.44 402.55 292.87 387.84 C 286.77 375.85 292.45 360.36 289.67 347.53 C 294.08 333.37 297.94 316.11 290.37 302.09 C 288.00 284.82 289.48 272.70 287.75 255.89 C 278.71 243.10 285.46 224.28 275.02 212.39 C 278.90 200.39 265.20 191.11 267.73 179.27 C 253.57 140.14 229.99 103.71 198.01 77.14 Z"
       opacity="1.00"
       fill="#345000" />
    <path
       id="path18"
       d=" M 231.08 78.83 C 228.68 89.84 218.28 72.49 229.74 77.15 C 230.08 77.57 230.74 78.41 231.08 78.83 Z"
       opacity="1.00"
       fill="#9a8900" />
    <path
       id="path20"
       d=" M 198.01 77.14 C 229.99 103.71 253.57 140.14 267.73 179.27 C 265.20 191.11 278.90 200.39 275.02 212.39 C 285.46 224.28 278.71 243.10 287.75 255.89 C 289.48 272.70 288.00 284.82 290.37 302.09 C 297.94 316.11 294.08 333.37 289.67 347.53 C 292.45 360.36 286.77 375.85 292.87 387.84 C 282.44 402.55 290.98 420.62 281.76 435.85 C 278.86 438.93 286.09 440.17 282.95 442.89 C 270.11 456.63 275.03 477.71 260.80 490.62 C 256.97 502.06 249.31 520.84 234.29 518.49 C 220.99 523.22 239.86 495.81 227.14 501.29 C 219.57 504.73 223.46 489.04 229.17 496.05 C 238.61 490.40 221.13 482.99 226.91 475.04 C 236.48 402.51 228.75 327.32 229.79 252.09 C 223.18 237.06 231.02 219.77 225.15 204.06 C 229.27 196.64 226.34 188.21 229.44 180.46 C 222.17 166.13 225.76 147.82 216.22 132.67 C 216.84 122.00 211.87 112.81 215.76 104.10 C 200.52 108.27 205.17 85.58 198.01 77.14 Z"
       opacity="1.00"
       fill="#103a00" />
    <path
       id="path22"
       d=" M 233.54 93.69 C 232.77 89.58 228.53 82.99 235.75 83.01 C 276.18 130.83 291.68 194.55 303.44 254.66 C 304.23 258.33 299.20 258.52 298.79 254.89 C 293.63 236.68 288.74 218.57 285.30 199.88 C 268.65 172.94 270.95 135.57 244.52 115.95 C 245.71 112.72 246.52 109.14 243.20 106.86 C 238.41 103.29 241.55 91.67 233.54 93.69 Z"
       opacity="1.00"
       fill="#9d8500" />
    <path
       id="path24"
       d=" M 127.42 99.02 C 127.55 95.74 125.45 88.96 131.05 89.30 C 134.39 99.48 133.67 110.09 132.89 120.63 C 143.98 121.50 139.83 100.40 151.00 104.47 C 156.76 125.16 147.73 145.61 148.40 166.49 C 143.69 173.01 149.74 186.12 137.80 186.37 C 142.77 194.22 150.32 214.89 136.44 221.25 C 137.68 226.38 138.02 232.11 141.71 236.22 C 142.38 244.88 137.10 253.12 136.56 261.59 C 141.22 267.62 134.97 273.98 134.05 280.23 C 132.21 296.30 132.40 313.05 128.63 328.70 C 124.38 334.40 130.53 339.01 136.16 337.91 C 125.52 342.96 135.40 358.73 124.41 364.69 C 115.51 359.61 132.40 349.37 121.88 345.37 C 124.79 339.99 124.17 327.51 118.35 324.22 C 115.36 331.60 110.20 322.37 106.06 327.87 C 101.81 325.07 98.19 318.46 92.88 323.35 C 92.78 303.45 95.45 283.51 96.53 263.78 C 100.48 273.92 90.87 291.49 104.45 291.27 C 105.11 298.08 98.78 310.47 109.42 309.33 C 110.94 301.16 108.54 290.06 114.89 283.09 C 104.55 282.79 118.14 278.50 121.05 277.09 C 113.67 275.04 122.49 268.50 117.38 263.75 C 123.76 245.42 119.23 226.67 124.17 207.42 C 128.84 204.12 121.32 204.64 122.54 201.49 C 128.36 200.48 122.35 192.69 123.89 188.44 C 127.23 180.90 123.35 172.73 125.79 165.01 C 111.62 172.94 125.97 155.80 119.20 149.89 C 122.07 148.76 132.54 142.42 124.86 143.75 C 117.78 148.03 120.98 136.57 117.65 133.09 C 116.89 144.03 114.47 151.67 109.04 160.08 C 110.05 153.16 104.73 141.24 114.60 140.92 C 112.80 134.11 115.32 127.06 117.23 120.35 C 121.38 113.68 128.86 107.76 127.42 99.02 Z"
       opacity="1.00"
       fill="#fab405" />
    <path
       id="path26"
       d=" M 161.48 142.05 C 163.94 125.55 156.62 107.60 162.96 91.98 C 171.00 100.91 173.24 115.24 176.78 126.36 C 175.18 146.66 182.69 167.12 181.87 186.95 C 187.44 196.23 176.84 203.91 181.45 213.90 C 187.13 219.37 175.10 229.54 184.46 227.59 C 183.27 238.70 178.81 251.23 182.32 262.37 C 188.13 264.17 181.98 268.85 180.53 271.23 C 188.65 293.90 181.09 315.44 182.47 338.50 C 178.02 346.98 187.33 359.44 177.91 366.13 C 177.16 351.37 176.94 334.57 182.34 321.58 C 177.02 316.05 178.56 304.94 179.43 297.02 C 178.61 268.39 177.78 239.88 177.57 211.14 C 182.26 201.37 172.42 190.34 179.21 181.65 C 178.96 175.11 177.78 168.47 174.64 162.54 C 175.43 147.39 172.80 129.87 168.08 117.17 C 159.76 137.48 171.56 160.65 165.54 180.50 C 164.50 199.89 163.18 219.93 163.53 239.88 C 162.23 239.30 160.92 238.72 159.65 238.09 C 160.37 206.10 163.82 173.99 161.48 142.05 Z"
       opacity="1.00"
       fill="#7e7a00" />
    <path
       id="path28"
       d=" M 113.91 96.98 C 114.19 91.32 124.84 91.10 123.78 97.37 C 123.01 105.24 118.26 112.36 117.23 120.35 C 115.32 127.06 112.80 134.11 114.60 140.92 C 104.73 141.24 110.05 153.16 109.04 160.08 C 102.93 169.27 110.15 182.03 100.31 189.19 C 103.40 192.73 102.14 194.36 99.40 196.90 C 106.68 199.80 99.77 212.84 98.87 219.08 C 94.73 216.41 102.14 209.28 95.81 210.24 C 75.86 207.44 81.93 234.95 79.43 247.76 C 84.44 254.35 74.60 259.33 77.46 267.39 C 74.64 315.67 70.03 365.93 81.89 412.31 C 81.90 418.04 82.97 423.85 82.04 429.57 C 79.11 421.60 81.31 412.03 76.09 404.92 C 65.28 407.33 70.91 421.61 63.29 424.92 C 65.56 452.32 66.17 479.73 70.53 506.71 C 67.87 510.97 67.29 515.59 73.06 517.25 C 62.95 519.39 72.22 527.03 76.34 521.07 C 83.75 516.36 76.17 528.64 84.35 528.09 C 83.54 519.24 82.45 511.62 87.95 504.04 C 94.65 505.41 91.57 508.43 89.23 511.82 C 96.63 512.41 91.67 519.76 92.44 524.38 C 93.89 529.48 98.25 533.39 98.87 538.81 C 96.25 543.19 89.35 539.92 93.61 535.53 C 84.48 535.50 89.16 544.34 86.52 549.96 C 93.20 553.53 89.91 558.51 87.99 563.48 C 92.52 561.35 99.38 570.89 92.14 570.00 C 63.01 555.82 44.53 526.46 33.21 496.94 C 42.75 498.37 37.83 515.68 49.06 517.93 C 54.94 520.88 43.86 520.67 46.85 524.03 C 51.72 525.31 58.87 520.93 63.60 525.01 C 61.05 506.18 56.90 486.31 53.01 467.90 C 49.78 465.06 49.28 457.43 53.28 454.83 C 56.30 468.11 58.28 482.79 63.94 494.89 C 68.80 476.94 57.94 457.20 62.01 438.79 C 65.33 431.18 55.90 419.98 64.41 414.89 C 53.31 397.94 67.22 377.16 60.60 358.97 C 65.23 318.75 60.28 277.86 70.46 236.79 C 66.37 226.14 76.34 217.23 72.86 206.91 C 73.16 200.96 75.52 195.52 79.05 190.83 C 79.35 190.36 79.97 189.43 80.27 188.96 C 85.56 193.22 73.11 197.86 77.02 203.43 C 74.07 212.26 78.79 221.84 75.11 230.94 C 78.21 235.08 78.85 226.31 79.21 225.09 C 82.94 203.41 85.57 179.21 93.74 159.82 C 100.58 139.91 106.10 117.47 113.91 96.98 Z"
       opacity="1.00"
       fill="#b29703" />
    <path
       id="path30"
       d=" M 91.91 106.97 C 93.18 104.16 99.21 97.76 100.00 103.84 C 90.10 125.09 85.15 148.49 80.31 172.11 C 83.39 165.35 74.05 164.66 71.96 170.01 C 48.20 239.41 47.97 313.78 48.87 386.32 C 40.30 379.00 51.10 367.18 44.29 362.06 C 49.14 350.22 43.47 337.06 46.77 325.11 C 49.97 322.00 41.57 322.52 45.06 319.02 C 51.89 313.59 40.80 305.14 49.86 300.94 C 45.23 297.67 44.81 291.28 47.70 286.63 C 51.51 271.18 47.95 255.29 53.70 240.21 C 48.14 234.85 57.40 232.94 52.45 227.04 C 62.13 216.89 57.85 199.26 64.82 186.81 C 71.36 160.03 80.54 133.34 91.91 106.97 Z"
       opacity="1.00"
       fill="#616300" />
    <path
       id="path32"
       d=" M 165.54 180.50 C 171.56 160.65 159.76 137.48 168.08 117.17 C 172.80 129.87 175.43 147.39 174.64 162.54 C 177.78 168.47 178.96 175.11 179.21 181.65 C 172.42 190.34 182.26 201.37 177.57 211.14 C 177.78 239.88 178.61 268.39 179.43 297.02 C 178.56 304.94 177.02 316.05 182.34 321.58 C 176.94 334.57 177.16 351.37 177.91 366.13 L 178.01 366.93 C 179.08 405.87 170.00 443.88 171.03 482.92 C 167.33 493.56 172.04 505.55 166.66 515.66 C 165.66 520.61 168.60 528.44 162.02 530.28 C 157.15 520.64 166.11 509.31 161.13 498.81 C 164.40 499.42 163.78 495.11 161.00 495.13 C 162.31 488.32 155.55 482.87 161.54 477.87 C 165.96 419.62 161.31 360.86 162.93 302.46 C 165.51 281.82 162.00 260.39 163.53 239.88 C 163.18 219.93 164.50 199.89 165.54 180.50 Z"
       opacity="1.00"
       fill="#476100" />
    <path
       id="path34"
       d=" M 109.04 160.08 C 114.47 151.67 116.89 144.03 117.65 133.09 C 120.98 136.57 117.78 148.03 124.86 143.75 C 132.54 142.42 122.07 148.76 119.20 149.89 C 125.97 155.80 111.62 172.94 125.79 165.01 C 123.35 172.73 127.23 180.90 123.89 188.44 C 122.35 192.69 128.36 200.48 122.54 201.49 C 121.32 204.64 128.84 204.12 124.17 207.42 C 119.23 226.67 123.76 245.42 117.38 263.75 C 122.49 268.50 113.67 275.04 121.05 277.09 C 118.14 278.50 104.55 282.79 114.89 283.09 C 108.54 290.06 110.94 301.16 109.42 309.33 C 98.78 310.47 105.11 298.08 104.45 291.27 C 90.87 291.49 100.48 273.92 96.53 263.78 C 100.22 248.72 94.86 233.95 98.87 219.08 C 99.77 212.84 106.68 199.80 99.40 196.90 C 102.14 194.36 103.40 192.73 100.31 189.19 C 110.15 182.03 102.93 169.27 109.04 160.08 Z"
       opacity="1.00"
       fill="#fff37b" />
    <path
       id="path36"
       d=" M 87.98 156.71 C 92.52 156.19 86.19 146.85 91.92 148.26 C 101.83 149.76 85.60 154.26 93.74 159.82 C 85.57 179.21 82.94 203.41 79.21 225.09 C 78.85 226.31 78.21 235.08 75.11 230.94 C 78.79 221.84 74.07 212.26 77.02 203.43 C 73.11 197.86 85.56 193.22 80.27 188.96 C 72.96 186.38 84.73 180.89 82.20 175.85 C 79.66 171.43 89.50 168.71 85.83 164.40 C 82.82 161.82 86.55 159.07 87.98 156.71 Z"
       opacity="1.00"
       fill="#f9ca2d" />
    <path
       id="path38"
       d=" M 71.96 170.01 C 74.05 164.66 83.39 165.35 80.31 172.11 C 70.80 179.65 75.58 195.78 72.86 206.91 C 61.03 260.13 60.00 314.01 60.12 368.12 C 56.21 377.11 65.38 393.15 53.92 397.18 C 51.00 394.22 49.92 390.20 48.87 386.32 C 47.97 313.78 48.20 239.41 71.96 170.01 Z"
       opacity="1.00"
       fill="#2d4c00" />
    <path
       id="path40"
       d=" M 72.86 206.91 C 75.58 195.78 70.80 179.65 80.31 172.11 C 78.70 177.93 73.08 186.13 79.05 190.83 C 75.52 195.52 73.16 200.96 72.86 206.91 Z"
       opacity="1.00"
       fill="#646300" />
    <path
       id="path42"
       d=" M 60.12 368.12 C 60.00 314.01 61.03 260.13 72.86 206.91 C 76.34 217.23 66.37 226.14 70.46 236.79 C 60.28 277.86 65.23 318.75 60.60 358.97 C 67.22 377.16 53.31 397.94 64.41 414.89 C 55.90 419.98 65.33 431.18 62.01 438.79 C 57.94 457.20 68.80 476.94 63.94 494.89 C 58.28 482.79 56.30 468.11 53.28 454.83 C 57.62 447.14 49.43 438.03 51.01 430.05 C 52.32 423.85 55.72 415.02 49.02 410.88 C 57.35 404.69 43.30 394.56 48.87 386.32 C 49.92 390.20 51.00 394.22 53.92 397.18 C 65.38 393.15 56.21 377.11 60.12 368.12 Z"
       opacity="1.00"
       fill="#6c7200" />
    <path
       id="path44"
       d=" M 79.43 247.76 C 81.93 234.95 75.86 207.44 95.81 210.24 C 102.14 209.28 94.73 216.41 98.87 219.08 C 94.86 233.95 100.22 248.72 96.53 263.78 C 95.45 283.51 92.78 303.45 92.88 323.35 C 94.64 377.72 96.44 429.24 97.23 483.26 C 95.80 486.78 103.03 488.00 99.85 493.55 C 97.41 500.52 106.64 508.05 99.35 512.38 C 103.99 517.96 100.56 532.51 111.88 532.57 C 109.07 533.24 100.86 542.66 108.15 541.51 C 112.43 540.69 105.61 548.81 109.76 547.75 C 115.77 547.06 108.14 539.31 114.82 538.21 C 117.58 542.38 122.38 537.77 126.04 540.69 C 130.11 536.12 118.96 535.58 120.60 531.86 C 127.99 531.70 136.07 529.40 142.83 525.90 C 138.63 521.00 145.27 518.48 146.72 515.00 C 141.85 511.34 134.70 515.13 129.09 515.86 C 134.98 507.53 145.47 510.35 154.25 510.61 C 152.55 505.68 143.71 507.98 142.56 501.18 C 150.49 509.18 154.87 497.20 161.13 498.81 C 166.11 509.31 157.15 520.64 162.02 530.28 C 168.60 528.44 165.66 520.61 166.66 515.66 C 172.04 505.55 167.33 493.56 171.03 482.92 C 170.00 443.88 179.08 405.87 178.01 366.93 C 184.91 384.81 175.11 410.01 177.49 424.60 C 170.51 431.98 182.41 442.07 173.59 448.73 C 170.03 452.72 181.39 453.24 176.20 455.41 C 171.05 456.69 173.54 466.23 178.76 463.23 C 183.58 470.17 187.66 464.20 185.45 457.38 C 189.33 459.86 202.17 457.37 198.44 453.55 C 188.89 459.24 199.10 443.99 191.40 445.13 C 188.77 446.01 188.32 453.13 185.12 449.86 C 174.20 441.58 199.31 438.01 197.85 427.95 C 200.25 421.48 184.79 418.52 197.64 416.96 C 205.96 409.27 192.42 408.35 197.24 402.64 C 189.22 397.60 202.23 401.10 205.95 400.15 C 208.32 408.22 197.72 416.92 205.20 423.81 C 207.77 427.91 197.96 425.13 200.31 429.44 C 206.82 431.87 199.78 440.91 206.88 443.22 C 204.56 449.55 202.75 456.83 197.02 461.21 C 204.96 464.36 195.40 471.18 199.74 476.80 C 191.60 473.58 191.25 487.16 197.70 489.20 C 191.70 491.96 195.56 495.47 197.77 498.80 C 192.71 497.38 188.36 501.42 183.31 500.37 C 185.03 505.63 185.46 509.30 178.87 506.54 C 176.26 519.42 193.21 510.50 194.05 504.19 C 197.97 509.40 186.77 520.01 192.63 527.95 C 186.43 534.07 183.36 553.93 197.62 550.54 C 198.97 555.21 192.43 558.47 194.57 563.28 C 195.86 570.27 204.82 563.44 208.50 568.17 C 196.37 574.35 182.42 580.51 168.56 578.61 C 143.34 582.69 115.38 582.14 92.14 570.00 C 99.38 570.89 92.52 561.35 87.99 563.48 C 89.91 558.51 93.20 553.53 86.52 549.96 C 89.16 544.34 84.48 535.50 93.61 535.53 C 89.35 539.92 96.25 543.19 98.87 538.81 C 98.25 533.39 93.89 529.48 92.44 524.38 C 91.67 519.76 96.63 512.41 89.23 511.82 C 91.57 508.43 94.65 505.41 87.95 504.04 C 89.22 476.13 83.08 460.16 82.00 432.07 C 91.86 432.23 81.97 456.87 92.96 449.73 C 91.36 395.50 90.83 338.63 90.99 283.52 C 96.23 277.07 90.66 268.91 93.64 261.66 C 89.82 254.84 89.09 268.45 87.40 270.43 C 85.82 295.10 83.05 320.18 79.39 344.76 C 84.06 367.25 79.00 389.84 81.89 412.31 C 70.03 365.93 74.64 315.67 77.46 267.39 C 74.60 259.33 84.44 254.35 79.43 247.76 Z"
       opacity="1.00"
       fill="#848303" />
    <path
       id="path46"
       d=" M 159.65 238.09 C 160.92 238.72 162.23 239.30 163.53 239.88 C 163.22 242.31 162.69 244.82 161.05 246.73 C 160.65 243.82 160.29 240.94 159.65 238.09 Z"
       opacity="1.00"
       fill="#9a9300" />
    <path
       id="path48"
       d=" M 163.53 239.88 C 162.00 260.39 165.51 281.82 162.93 302.46 C 160.30 288.96 164.17 273.71 159.00 260.01 C 155.40 255.81 157.98 250.35 161.05 246.73 C 162.69 244.82 163.22 242.31 163.53 239.88 Z"
       opacity="1.00"
       fill="#818300" />
    <path
       id="path50"
       d=" M 87.40 270.43 C 89.09 268.45 89.82 254.84 93.64 261.66 C 90.66 268.91 96.23 277.07 90.99 283.52 C 90.83 338.63 91.36 395.50 92.96 449.73 C 81.97 456.87 91.86 432.23 82.00 432.07 C 82.01 431.45 82.03 430.20 82.04 429.57 C 82.97 423.85 81.90 418.04 81.89 412.31 C 79.00 389.84 84.06 367.25 79.39 344.76 C 83.05 320.18 85.82 295.10 87.40 270.43 Z"
       opacity="1.00"
       fill="#4f6600" />
    <path
       id="path52"
       d=" M 299.16 264.86 C 298.42 262.58 300.37 259.55 302.90 260.07 C 304.97 268.22 305.10 278.36 308.43 284.94 C 304.13 289.65 310.94 298.33 306.20 300.91 C 304.47 288.77 301.47 276.88 299.16 264.86 Z"
       opacity="1.00"
       fill="#9e8a00" />
    <path
       id="path54"
       d=" M 17.54 392.14 C 23.68 389.87 18.75 402.23 24.01 399.41 C 30.05 390.96 25.91 406.74 20.01 407.19 C 26.77 417.89 43.41 402.14 41.91 418.26 C 49.77 405.75 47.85 423.84 51.01 430.05 C 49.43 438.03 57.62 447.14 53.28 454.83 C 51.39 446.17 42.21 438.79 44.59 430.50 C 40.51 437.62 30.11 429.22 26.23 436.44 C 17.87 438.81 33.77 422.80 24.10 426.03 C 16.81 427.18 23.65 437.55 16.85 435.14 C 13.70 430.83 15.12 438.49 14.84 441.02 C 13.39 437.63 12.26 434.01 12.02 430.31 C 12.00 424.75 13.03 419.41 14.74 414.17 C 2.98 417.50 21.17 402.54 15.84 401.86 C 6.86 409.16 9.89 392.21 17.54 392.14 Z"
       opacity="1.00"
       fill="#bc9a00" />
    <path
       id="path56"
       d=" M 63.29 424.92 C 70.91 421.61 65.28 407.33 76.09 404.92 C 81.31 412.03 79.11 421.60 82.04 429.57 C 82.03 430.20 82.01 431.45 82.00 432.07 C 83.08 460.16 89.22 476.13 87.95 504.04 C 82.45 511.62 83.54 519.24 84.35 528.09 C 76.17 528.64 83.75 516.36 76.34 521.07 C 72.22 527.03 62.95 519.39 73.06 517.25 C 67.29 515.59 67.87 510.97 70.53 506.71 C 66.17 479.73 65.56 452.32 63.29 424.92 Z"
       opacity="1.00"
       fill="#f1b908" />
    <path
       id="path58"
       d=" M 115.01 427.24 C 113.72 415.11 131.66 406.57 141.21 409.58 C 141.54 412.17 141.25 423.48 146.01 419.99 C 146.49 410.71 155.37 419.57 158.63 422.81 C 149.14 433.00 162.77 452.42 148.41 458.56 C 140.03 458.48 144.29 465.60 146.80 469.19 C 142.38 467.36 137.72 465.82 132.93 465.49 C 129.26 472.44 144.80 465.81 142.44 472.61 C 142.35 479.54 150.61 467.55 152.39 472.85 C 149.24 474.37 147.00 478.99 153.43 478.55 C 154.28 484.91 145.43 477.86 143.48 482.69 C 141.16 488.11 133.32 478.71 133.35 484.70 C 136.00 490.56 126.18 492.93 130.65 498.20 C 129.12 504.32 123.68 493.81 122.51 497.65 C 123.28 506.56 117.25 495.75 115.50 501.65 C 110.41 506.21 114.79 494.99 109.53 496.44 C 103.44 494.86 108.29 503.01 106.10 506.27 C 98.81 505.35 106.03 492.21 99.85 493.55 C 103.03 488.00 95.80 486.78 97.23 483.26 C 107.23 480.71 91.38 461.15 109.85 466.59 C 104.71 465.16 100.73 462.24 99.29 456.96 C 103.65 451.84 106.84 443.81 101.37 438.35 C 96.96 429.92 109.87 430.82 108.65 422.91 C 111.12 420.57 112.61 426.39 115.01 427.24 Z"
       opacity="1.00"
       fill="#f6bf0c" />
    <path
       id="path60"
       d=" M 24.10 426.03 C 33.77 422.80 17.87 438.81 26.23 436.44 C 30.11 429.22 40.51 437.62 44.59 430.50 C 42.21 438.79 51.39 446.17 53.28 454.83 C 49.28 457.43 49.78 465.06 53.01 467.90 C 56.90 486.31 61.05 506.18 63.60 525.01 C 58.87 520.93 51.72 525.31 46.85 524.03 C 43.86 520.67 54.94 520.88 49.06 517.93 C 37.83 515.68 42.75 498.37 33.21 496.94 C 22.25 480.13 21.09 459.68 14.84 441.02 C 15.12 438.49 13.70 430.83 16.85 435.14 C 23.65 437.55 16.81 427.18 24.10 426.03 Z"
       opacity="1.00"
       fill="#f1ba07" />
    <path
       id="path62"
       d=" M 178.76 463.23 C 188.59 458.65 176.13 450.82 178.76 463.23 Z"
       opacity="1.00"
       fill="#897c00" />
    <path
       id="path64"
       d=" M 161.00 495.13 C 163.78 495.11 164.40 499.42 161.13 498.81 C 160.95 497.58 160.91 496.36 161.00 495.13 Z"
       opacity="1.00"
       fill="#758000" />
  </g>
</svg>
